# Blender 3.3.0
# www.blender.org
mtllib egg.mtl
o Icosphere
v 0.688189 1.706774 0.499997
v -0.262869 1.706776 0.809012
v -0.850648 1.706774 0.000000
v -0.262869 1.706776 -0.809012
v 0.425323 0.206613 0.309011
v -0.162456 0.206612 0.499995
v 0.688189 1.706774 -0.499997
v 0.162456 2.123425 0.499995
v 0.262869 0.495388 0.809012
v 0.850648 0.495390 0.000000
v 0.587786 0.962648 0.809017
v 0.525730 2.123422 0.000000
v -0.276388 0.565172 0.850649
v 0.723607 0.565173 0.525725
v 0.000000 0.073879 0.000000
v -0.425323 2.123425 0.309011
v -0.951058 0.962648 0.309013
v -0.425323 2.123425 -0.309011
v 0.162456 2.123425 -0.499995
v -0.587786 0.962648 0.809017
v -0.587786 0.962648 -0.809017
v 0.425323 0.206613 -0.309011
v 0.000000 2.321112 0.000000
v -0.525730 0.206615 0.000000
v 0.894426 1.600288 0.000000
v 0.276388 1.600294 -0.850649
v -0.723607 1.600293 -0.525725
v -0.723607 1.600293 0.525725
v -0.688189 0.495390 0.499997
v -0.951058 0.962648 -0.309013
v -0.162456 0.206612 -0.499995
v -0.688189 0.495390 -0.499997
v 0.276388 1.600294 0.850649
v 0.723607 0.565173 -0.525725
v 0.587786 0.962648 -0.809017
v 0.262869 0.495388 -0.809012
v 0.951058 0.962648 0.309013
v -0.276388 0.565172 -0.850649
v 0.000000 0.962648 -1.000000
v -0.894426 0.565176 0.000000
v 0.951058 0.962648 -0.309013
v 0.000000 0.962648 1.000000
vn 0.2979 -0.9546 -0.0000
vn 0.5270 -0.3665 0.7668
vn 0.0475 0.5633 0.8249
vn -0.6852 -0.7046 -0.1843
vn -0.9316 0.2393 -0.2736
vn 0.5270 -0.3665 -0.7668
vn 0.6627 -0.7046 -0.2537
vn -0.7698 0.5633 -0.3001
vn -0.4215 0.9068 -0.0000
vn 0.4464 0.5633 -0.6953
vn 0.0475 0.5633 -0.8249
vn 0.4460 -0.7046 0.5519
vn -0.3870 -0.7046 -0.5947
vn -0.2162 0.7144 -0.6655
vn -0.1302 0.9068 -0.4009
vn 0.7992 0.5633 -0.2097
vn 0.4464 0.5633 0.6953
vn 0.3410 0.9068 -0.2477
vn -0.8058 0.0885 0.5855
vn -0.5664 -0.3665 0.7381
vn 0.5929 0.2393 0.7689
vn 0.9145 0.2393 0.3262
vn -0.0277 0.2393 -0.9705
vn 0.9145 0.2393 -0.3262
vn 0.5929 0.2393 -0.7689
vn -0.7910 -0.2101 0.5747
vn -0.6852 -0.7046 0.1843
vn -0.3870 -0.7046 0.5947
vn -0.8771 -0.3665 0.3106
vn 0.8009 -0.1411 0.5819
vn -0.8771 -0.3665 -0.3106
vn 0.8009 -0.1411 -0.5819
vn -0.5481 0.2393 -0.8015
vn -0.7910 -0.2101 -0.5747
vn 0.8018 0.1337 0.5825
vn 0.5661 0.7144 0.4113
vn -0.3062 0.1337 -0.9425
vn -0.8058 0.0885 -0.5855
vn 0.5661 0.7144 -0.4113
vn -0.0277 0.2393 0.9705
vn 0.8018 0.1337 -0.5825
vn 0.7992 0.5633 0.2097
vn -0.3062 0.1337 0.9425
vn -0.2410 -0.9546 0.1751
vn -0.0365 -0.7046 0.7087
vn -0.5664 -0.3665 -0.7381
vn -0.3059 -0.1411 -0.9415
vn 0.1736 -0.8273 0.5342
vn -0.3059 -0.1411 0.9415
vn 0.1736 -0.8273 -0.5342
vn -0.5233 0.5633 -0.6394
vn -0.5481 0.2393 0.8015
vn -0.4544 -0.8273 0.3302
vn -0.6998 0.7144 -0.0000
vn 0.9777 -0.2101 -0.0000
vn 0.9961 0.0885 -0.0000
vn 0.3078 0.0885 0.9473
vn 0.8921 -0.3665 0.2642
vn -0.9900 -0.1411 -0.0000
vn 0.3021 -0.2101 0.9298
vn 0.0921 -0.9546 -0.2833
vn -0.2410 -0.9546 -0.1751
vn 0.3078 0.0885 -0.9473
vn -0.9316 0.2393 0.2736
vn 0.3410 0.9068 0.2477
vn -0.7698 0.5633 0.3001
vn -0.9910 0.1337 -0.0000
vn 0.8921 -0.3665 -0.2642
vn 0.0244 -0.3665 -0.9301
vn -0.5233 0.5633 0.6394
vn -0.4544 -0.8273 -0.3302
vn 0.5617 -0.8273 -0.0000
vn 0.6627 -0.7046 0.2537
vn 0.0244 -0.3665 0.9301
vn -0.0365 -0.7046 -0.7087
vn 0.4460 -0.7046 -0.5519
vn -0.1302 0.9068 0.4009
vn 0.0921 -0.9546 0.2833
vn -0.2162 0.7144 0.6655
vn 0.3021 -0.2101 -0.9298
vt 0.272728 0.314921
vt 0.090910 0.314921
vt 0.818182 0.314921
vt 0.636364 0.314921
vt 0.318182 0.078731
vt 0.227273 0.078731
vt 0.954545 0.078731
vt 0.136365 0.078731
vt 0.454546 0.314921
vt 0.227273 0.393651
vt 0.136365 0.393651
vt 0.181819 0.157461
vt 0.363637 0.157461
vt 0.227273 0.236191
vt 0.409092 0.393651
vt 0.318182 0.393651
vt 1.000000 0.157461
vt 0.090910 0.157461
vt 0.272728 0.157461
vt 0.363637 0.000000
vt 0.909091 0.000000
vt 0.545455 0.000000
vt 0.727273 0.000000
vt 0.181819 0.000000
vt 0.863636 0.393651
vt 0.045455 0.393651
vt 0.863636 0.236191
vt 0.681818 0.393651
vt 0.772727 0.393651
vt 0.590909 0.393651
vt 0.500000 0.393651
vt 0.954545 0.236191
vt 0.045455 0.236191
vt 0.681818 0.236191
vt 0.409092 0.078731
vt 0.500000 0.078731
vt 0.818182 0.472382
vt 0.636364 0.472382
vt 0.454546 0.472382
vt 0.272728 0.472382
vt 0.090910 0.472382
vt 0.863636 0.078731
vt 0.772727 0.078731
vt 0.363637 0.314921
vt 0.545455 0.314921
vt 0.727273 0.314921
vt 0.909091 0.314921
vt 0.000000 0.314921
vt 0.909091 0.157461
vt 0.772727 0.236191
vt 0.681818 0.078731
vt 0.590909 0.078731
vt 0.727273 0.157461
vt 0.181819 0.314921
vt 0.454546 0.157461
vt 0.500000 0.236191
vt 0.545455 0.157461
vt 0.318182 0.236191
vt 0.636364 0.157461
vt 0.590909 0.236191
vt 0.818182 0.157461
vt 0.409092 0.236191
vt 0.136365 0.236191
s 0
f 5/5/1 15/20/1 22/35/1
f 9/12/2 14/19/2 11/14/2
f 2/2/3 33/54/3 8/11/3
f 24/43/4 40/61/4 32/53/4
f 30/50/5 3/3/5 27/46/5
f 34/55/6 36/57/6 35/56/6
f 10/13/7 22/35/7 34/55/7
f 27/46/8 3/3/8 18/29/8
f 18/29/9 16/25/9 23/37/9
f 7/9/10 26/45/10 19/31/10
f 26/45/11 4/4/11 19/30/11
f 5/6/12 14/19/12 9/12/12
f 31/51/13 32/53/13 38/59/13
f 19/30/14 4/4/14 18/28/14
f 19/30/15 18/28/15 23/38/15
f 25/44/16 7/9/16 12/15/16
f 33/54/17 1/1/17 8/10/17
f 12/15/18 19/31/18 23/39/18
f 17/27/19 20/32/19 28/47/19
f 29/49/20 13/17/20 20/32/20
f 11/14/21 1/1/21 33/54/21
f 37/58/22 25/44/22 1/1/22
f 39/60/23 4/4/23 26/45/23
f 41/62/24 7/9/24 25/44/24
f 35/56/25 26/45/25 7/9/25
f 17/27/26 29/49/26 20/32/26
f 24/42/27 29/49/27 40/61/27
f 6/7/28 13/17/28 29/49/28
f 40/61/29 29/49/29 17/27/29
f 14/19/30 37/58/30 11/14/30
f 32/53/31 40/61/31 30/50/31
f 34/55/32 35/56/32 41/62/32
f 21/34/33 27/46/33 4/4/33
f 21/34/34 32/53/34 30/50/34
f 11/14/35 37/58/35 1/1/35
f 8/10/36 1/1/36 12/16/36
f 39/60/37 21/34/37 4/4/37
f 21/34/38 30/50/38 27/46/38
f 12/15/39 7/9/39 19/31/39
f 42/63/40 33/54/40 2/2/40
f 41/62/41 35/56/41 7/9/41
f 1/1/42 25/44/42 12/16/42
f 20/33/43 42/63/43 2/2/43
f 15/21/44 6/7/44 24/42/44
f 6/8/45 9/12/45 13/18/45
f 38/59/46 32/53/46 21/34/46
f 38/59/47 21/34/47 39/60/47
f 6/8/48 5/6/48 9/12/48
f 13/18/49 42/63/49 20/33/49
f 22/36/50 31/52/50 36/57/50
f 4/4/51 27/46/51 18/28/51
f 20/33/52 2/2/52 28/48/52
f 24/42/53 6/7/53 29/49/53
f 18/29/54 3/3/54 16/25/54
f 37/58/55 10/13/55 41/62/55
f 37/58/56 41/62/56 25/44/56
f 42/63/57 11/14/57 33/54/57
f 14/19/58 10/13/58 37/58/58
f 40/61/59 17/27/59 30/50/59
f 42/63/60 9/12/60 11/14/60
f 15/22/61 31/52/61 22/36/61
f 15/23/62 24/43/62 31/51/62
f 35/56/63 39/60/63 26/45/63
f 17/27/64 28/47/64 3/3/64
f 8/10/65 12/16/65 23/40/65
f 3/3/66 28/47/66 16/25/66
f 30/50/67 17/27/67 3/3/67
f 10/13/68 34/55/68 41/62/68
f 36/57/69 38/59/69 39/60/69
f 28/48/70 2/2/70 16/26/70
f 31/51/71 24/43/71 32/53/71
f 10/13/72 5/5/72 22/35/72
f 14/19/73 5/5/73 10/13/73
f 13/18/74 9/12/74 42/63/74
f 31/52/75 38/59/75 36/57/75
f 22/36/76 36/57/76 34/55/76
f 16/26/77 8/11/77 23/41/77
f 15/24/78 5/6/78 6/8/78
f 16/26/79 2/2/79 8/11/79
f 35/56/80 36/57/80 39/60/80
